<mxfile host="app.diagrams.net" agent="Mozilla/5.0 (Windows NT 10.0; Win64; x64) AppleWebKit/537.36 (KHTML, like Gecko) Chrome/127.0.0.0 Safari/537.36" version="24.7.7">
  <diagram name="Page-1" id="BKQfxbdC6XmUTiV0i-4K">
    <mxGraphModel dx="954" dy="660" grid="1" gridSize="10" guides="1" tooltips="1" connect="1" arrows="1" fold="1" page="1" pageScale="1" pageWidth="827" pageHeight="1169" math="0" shadow="0">
      <root>
        <mxCell id="0" />
        <mxCell id="1" parent="0" />
        <mxCell id="3xrjNNarSwdMbyqT8nml-6" style="edgeStyle=orthogonalEdgeStyle;rounded=0;orthogonalLoop=1;jettySize=auto;html=1;exitX=0.5;exitY=1;exitDx=0;exitDy=0;" edge="1" parent="1" source="3xrjNNarSwdMbyqT8nml-2">
          <mxGeometry relative="1" as="geometry">
            <mxPoint x="110" y="400" as="targetPoint" />
          </mxGeometry>
        </mxCell>
        <mxCell id="3xrjNNarSwdMbyqT8nml-2" value="Households&lt;div&gt;&lt;li&gt;&lt;code&gt;HouseholdID (PK)&lt;/code&gt;&lt;/li&gt;&lt;li&gt;&lt;code&gt;HeadOfHousehold&lt;/code&gt;&lt;/li&gt;&lt;li&gt;&lt;code&gt;IncomeLevel&lt;/code&gt;&lt;/li&gt;&lt;li&gt;&lt;code&gt;FamilySize&lt;/code&gt;&lt;/li&gt;&lt;/div&gt;" style="rounded=1;whiteSpace=wrap;html=1;" vertex="1" parent="1">
          <mxGeometry x="50" y="250" width="120" height="190" as="geometry" />
        </mxCell>
        <mxCell id="3xrjNNarSwdMbyqT8nml-3" value="House Units&lt;div&gt;&lt;li&gt;&lt;code&gt;UnitID (PK)&lt;/code&gt;&lt;/li&gt;&lt;li&gt;&lt;code&gt;Location&lt;/code&gt;&lt;/li&gt;&lt;li&gt;&lt;code&gt;HousingCost&lt;/code&gt;&lt;/li&gt;&lt;li&gt;&lt;code&gt;HouseholdID (FK)&lt;/code&gt;&lt;/li&gt;&lt;/div&gt;" style="rounded=1;whiteSpace=wrap;html=1;" vertex="1" parent="1">
          <mxGeometry x="520" y="230" width="120" height="190" as="geometry" />
        </mxCell>
        <mxCell id="3xrjNNarSwdMbyqT8nml-4" value="Safety Reports&lt;div&gt;&lt;li&gt;&lt;code&gt;ReportID (PK)&lt;/code&gt;&lt;/li&gt;&lt;li&gt;&lt;code&gt;IncidentType&lt;/code&gt;&lt;/li&gt;&lt;li&gt;&lt;code&gt;Severity&lt;/code&gt;&lt;/li&gt;&lt;li&gt;&lt;code&gt;Date&lt;/code&gt;&lt;/li&gt;&lt;li&gt;&lt;code&gt;UnitID (FK)&lt;/code&gt;&lt;/li&gt;&lt;/div&gt;" style="rounded=1;whiteSpace=wrap;html=1;" vertex="1" parent="1">
          <mxGeometry x="90" y="580" width="120" height="190" as="geometry" />
        </mxCell>
        <mxCell id="3xrjNNarSwdMbyqT8nml-5" value="Government Programs&lt;div&gt;&lt;li&gt;&lt;code&gt;ProgramID (PK)&lt;/code&gt;&lt;/li&gt;&lt;li&gt;&lt;code&gt;ProgramName&lt;/code&gt;&lt;/li&gt;&lt;li&gt;&lt;code&gt;FundingAmount&lt;/code&gt;&lt;/li&gt;&lt;/div&gt;" style="rounded=1;whiteSpace=wrap;html=1;" vertex="1" parent="1">
          <mxGeometry x="540" y="580" width="120" height="190" as="geometry" />
        </mxCell>
        <mxCell id="3xrjNNarSwdMbyqT8nml-7" value="One to Many" style="edgeStyle=entityRelationEdgeStyle;fontSize=12;html=1;endArrow=ERzeroToMany;endFill=1;rounded=0;exitX=1;exitY=0.67;exitDx=0;exitDy=0;exitPerimeter=0;" edge="1" parent="1" source="3xrjNNarSwdMbyqT8nml-2">
          <mxGeometry width="100" height="100" relative="1" as="geometry">
            <mxPoint x="240" y="370" as="sourcePoint" />
            <mxPoint x="520" y="280" as="targetPoint" />
            <Array as="points">
              <mxPoint x="300" y="370" />
              <mxPoint x="250" y="350" />
              <mxPoint x="220" y="100" />
              <mxPoint x="470" y="350" />
            </Array>
          </mxGeometry>
        </mxCell>
        <mxCell id="3xrjNNarSwdMbyqT8nml-8" value="Many-To-One" style="edgeStyle=entityRelationEdgeStyle;fontSize=12;html=1;endArrow=ERzeroToMany;startArrow=ERzeroToOne;rounded=0;exitX=0;exitY=0.5;exitDx=0;exitDy=0;entryX=1.022;entryY=0.579;entryDx=0;entryDy=0;entryPerimeter=0;" edge="1" parent="1" source="3xrjNNarSwdMbyqT8nml-3" target="3xrjNNarSwdMbyqT8nml-4">
          <mxGeometry width="100" height="100" relative="1" as="geometry">
            <mxPoint x="589.76" y="470" as="sourcePoint" />
            <mxPoint x="236.99999999999997" y="603.9200000000001" as="targetPoint" />
            <Array as="points">
              <mxPoint x="570" y="370" />
              <mxPoint x="519.72" y="630" />
              <mxPoint x="379.72" y="630" />
              <mxPoint x="180" y="530" />
              <mxPoint x="120" y="560" />
            </Array>
          </mxGeometry>
        </mxCell>
      </root>
    </mxGraphModel>
  </diagram>
</mxfile>
